<svg xmlns="http://www.w3.org/2000/svg" width="480" height="320" viewBox="0 0 480 320">
  <rect width="100%" height="100%" fill="#eaf4fb"/>
  <rect width="100%" height="70" y="250" fill="#c9c9c9"/>
  <g transform="translate(230,90) scale(0.9)">
    <ellipse cx="100" cy="118" rx="95" ry="10" fill="#00000022"/>
    <path d="M15,95 Q20,55 55,50 L80,30 Q95,20 130,20 L155,30 Q175,42 185,55 L190,95 Z" fill="#4a7c3f" stroke="#222" stroke-width="3"/>
    <path d="M85,32 L108,32 Q120,32 128,42 L138,52 L82,52 Z" fill="#bfe3f0" stroke="#222" stroke-width="2"/>
    <rect x="15" y="80" width="175" height="18" fill="#4a7c3f" stroke="#222" stroke-width="3"/>
    <circle cx="55" cy="100" r="18" fill="#222"/><circle cx="55" cy="100" r="7" fill="#ccc"/>
    <circle cx="150" cy="100" r="18" fill="#222"/><circle cx="150" cy="100" r="7" fill="#ccc"/>
  </g>
  <g transform="translate(70,140)">
    <circle cx="30" cy="20" r="18" fill="#e0ac69"/>
    <rect x="10" y="38" width="40" height="70" rx="10" fill="#3b6fa0"/>
    <line x1="45" y1="60" x2="90" y2="50" stroke="#e0ac69" stroke-width="8" stroke-linecap="round"/>
  </g>
  <g transform="translate(150,140)">
    <circle cx="30" cy="20" r="18" fill="#c68642"/>
    <rect x="10" y="38" width="40" height="70" rx="10" fill="#c77b2e"/>
    <line x1="15" y1="60" x2="-25" y2="50" stroke="#c68642" stroke-width="8" stroke-linecap="round"/>
  </g>
  <circle cx="82" cy="53" r="5" fill="#f4d35e" stroke="#333" stroke-width="1"/>
  <text x="240" y="300" text-anchor="middle" font-family="sans-serif" font-size="18" fill="#333">Vehicle handover with Mercy Hire Car staff</text>
</svg>